<svg viewBox="0 0 1200 300" xmlns="http://www.w3.org/2000/svg">
  <defs>
    <linearGradient id="bg" x1="0%" y1="0%" x2="100%" y2="100%">
      <stop offset="0%" stop-color="#0a1f0d"/>
      <stop offset="45%" stop-color="#0f2d14"/>
      <stop offset="100%" stop-color="#061a0a"/>
    </linearGradient>
    <radialGradient id="glow1" cx="20%" cy="50%" r="45%">
      <stop offset="0%" stop-color="#2d7a3a" stop-opacity="0.35"/>
      <stop offset="100%" stop-color="#2d7a3a" stop-opacity="0"/>
    </radialGradient>
    <radialGradient id="glow2" cx="80%" cy="50%" r="40%">
      <stop offset="0%" stop-color="#4caf50" stop-opacity="0.18"/>
      <stop offset="100%" stop-color="#4caf50" stop-opacity="0"/>
    </radialGradient>
    <radialGradient id="sunGrad" cx="50%" cy="50%" r="50%">
      <stop offset="0%" stop-color="#a8e6a3"/>
      <stop offset="60%" stop-color="#66bb6a"/>
      <stop offset="100%" stop-color="#388e3c"/>
    </radialGradient>
    <radialGradient id="sunHalo" cx="50%" cy="50%" r="50%">
      <stop offset="0%" stop-color="#66bb6a" stop-opacity="0.3"/>
      <stop offset="60%" stop-color="#66bb6a" stop-opacity="0.08"/>
      <stop offset="100%" stop-color="#66bb6a" stop-opacity="0"/>
    </radialGradient>
    <filter id="blur5"><feGaussianBlur stdDeviation="5"/></filter>
    <filter id="blur10"><feGaussianBlur stdDeviation="10"/></filter>
    <clipPath id="clip"><rect width="1200" height="300" rx="12"/></clipPath>
  </defs>
  <g clip-path="url(#clip)">
    <rect width="1200" height="300" fill="url(#bg)"/>
    <rect width="1200" height="300" fill="url(#glow1)"/>
    <rect width="1200" height="300" fill="url(#glow2)"/>
    <g stroke="#1e4d24" stroke-width="0.4" opacity="0.4">
      <line x1="0" y1="60" x2="1200" y2="60"/><line x1="0" y1="120" x2="1200" y2="120"/>
      <line x1="0" y1="180" x2="1200" y2="180"/><line x1="0" y1="240" x2="1200" y2="240"/>
      <line x1="150" y1="0" x2="150" y2="300"/><line x1="300" y1="0" x2="300" y2="300"/>
      <line x1="450" y1="0" x2="450" y2="300"/><line x1="600" y1="0" x2="600" y2="300"/>
      <line x1="750" y1="0" x2="750" y2="300"/><line x1="900" y1="0" x2="900" y2="300"/>
      <line x1="1050" y1="0" x2="1050" y2="300"/>
    </g>
    <path d="M30,200 Q60,160 90,175 Q120,190 150,155 Q180,120 210,140 Q240,160 270,130 Q290,115 300,120" stroke="#4caf50" stroke-width="2" fill="none" opacity="0.7"/>
    <path d="M30,200 Q60,160 90,175 Q120,190 150,155 Q180,120 210,140 Q240,160 270,130 Q290,115 300,120 L300,300 L30,300 Z" fill="#4caf50" opacity="0.06"/>
    <path d="M900,170 Q950,140 990,158 Q1030,175 1070,148 Q1110,122 1150,140 Q1175,152 1200,145" stroke="#81c784" stroke-width="2" fill="none" opacity="0.6"/>
    <path d="M900,170 Q950,140 990,158 Q1030,175 1070,148 Q1110,122 1150,140 Q1175,152 1200,145 L1200,300 L900,300 Z" fill="#81c784" opacity="0.05"/>
    <ellipse cx="185" cy="150" rx="80" ry="80" fill="url(#sunHalo)" filter="url(#blur10)"/>
    <circle cx="185" cy="150" r="48" fill="#2d7a3a" opacity="0.2" filter="url(#blur5)"/>
    <circle cx="185" cy="150" r="36" fill="url(#sunGrad)"/>
    <rect x="180" y="120" width="10" height="32" rx="5" fill="#0a1f0d" opacity="0.6"/>
    <circle cx="185" cy="157" r="8" fill="#0a1f0d" opacity="0.6"/>
    <rect x="182" y="130" width="6" height="22" rx="3" fill="#c8f5c8" opacity="0.9"/>
    <circle cx="185" cy="157" r="5.5" fill="#a8e6a3" opacity="0.95"/>
    <g stroke="#66bb6a" stroke-width="1.5" stroke-linecap="round" opacity="0.5">
      <line x1="185" y1="100" x2="185" y2="92"/><line x1="185" y1="200" x2="185" y2="208"/>
      <line x1="135" y1="150" x2="127" y2="150"/><line x1="235" y1="150" x2="243" y2="150"/>
      <line x1="150" y1="115" x2="144" y2="109"/><line x1="220" y1="185" x2="226" y2="191"/>
      <line x1="220" y1="115" x2="226" y2="109"/><line x1="150" y1="185" x2="144" y2="191"/>
    </g>
    <g fill="#4caf50" opacity="0.5">
      <circle cx="350" cy="55" r="2.5"/><circle cx="420" cy="80" r="1.8"/><circle cx="500" cy="45" r="2"/>
      <circle cx="830" cy="60" r="2.2"/><circle cx="910" cy="40" r="1.7"/><circle cx="980" cy="70" r="2.4"/>
      <circle cx="1060" cy="50" r="1.9"/>
    </g>
    <g fill="#a5d6a7" opacity="0.3">
      <circle cx="380" cy="240" r="1.8"/><circle cx="460" cy="260" r="2.2"/>
      <circle cx="860" cy="250" r="2"/><circle cx="950" cy="235" r="1.6"/><circle cx="1080" cy="255" r="2.1"/>
    </g>
    <g opacity="0.45">
      <path d="M1040,75 Q1040,68 1035,72 Q1030,77 1033,83 Q1036,88 1040,88 Q1044,88 1047,83 Q1050,77 1045,72 Q1040,68 1040,75 Z" fill="#81c784"/>
      <path d="M1090,55 Q1090,49 1086,52 Q1082,57 1084,62 Q1087,66 1090,66 Q1093,66 1096,62 Q1098,57 1094,52 Q1090,49 1090,55 Z" fill="#66bb6a"/>
    </g>
    <g stroke="#388e3c" stroke-width="1.2" fill="none" opacity="0.4" stroke-linecap="round">
      <path d="M330,130 Q370,120 410,128"/><path d="M335,142 Q378,132 418,140"/><path d="M340,154 Q382,145 420,152"/>
    </g>
    <text x="640" y="152" font-family="Georgia, 'Times New Roman', serif" font-size="76" font-weight="bold" fill="#c8f5c8" letter-spacing="4" text-anchor="middle" opacity="0.97">EnviroSense</text>
    <text x="640" y="152" font-family="Georgia, 'Times New Roman', serif" font-size="76" font-weight="bold" fill="none" stroke="#4caf50" stroke-width="1.2" letter-spacing="4" text-anchor="middle" opacity="0.25">EnviroSense</text>
    <text x="640" y="192" font-family="Georgia, 'Times New Roman', serif" font-size="16" fill="#81c784" letter-spacing="5" text-anchor="middle" opacity="0.75">M O N I T O R A M E N T O   A M B I E N T A L</text>
    <line x1="270" y1="178" x2="395" y2="178" stroke="#4caf50" stroke-width="0.7" opacity="0.35"/>
    <circle cx="270" cy="178" r="2" fill="#4caf50" opacity="0.35"/>
    <line x1="885" y1="178" x2="1010" y2="178" stroke="#4caf50" stroke-width="0.7" opacity="0.35"/>
    <circle cx="1010" cy="178" r="2" fill="#4caf50" opacity="0.35"/>
    <g font-family="monospace" font-size="11" fill="#4caf50" opacity="0.55">
      <text x="32" y="268">TEMP</text>
      <text x="100" y="268">HUM</text>
      <text x="160" y="268">WIND</text>
      <text x="228" y="268">RAIN</text>
      <text x="296" y="268">PRESS</text>
    </g>
    <path d="M0,272 Q200,248 400,262 Q600,276 800,255 Q1000,235 1200,258 L1200,300 L0,300 Z" fill="#061a0a" opacity="0.8"/>
    <path d="M0,285 Q300,270 600,280 Q900,290 1200,275 L1200,300 L0,300 Z" fill="#040f06"/>
  </g>
</svg>
